<svg class="svg-icon" style="width: 1em; height: 1em;vertical-align: middle;fill: currentColor;overflow: hidden;" viewBox="0 0 1024 1024" version="1.1" xmlns="http://www.w3.org/2000/svg"><path d="M1002.666667 426.666667h-121.834667c-8.512-33.728-19.370667-71.125333-33.173333-99.498667l86.698666-86.72a21.333333 21.333333 0 0 0 0-30.165333L813.653333 89.621333a21.312 21.312 0 0 0-30.165333 0l-86.72 86.72C668.394667 162.517333 630.997333 151.637333 597.333333 143.146667V21.333333a21.333333 21.333333 0 0 0-21.333333-21.333333h-128a21.333333 21.333333 0 0 0-21.333333 21.333333v121.813334c-33.706667 8.512-71.125333 19.392-99.477334 33.216l-86.741333-86.72a21.312 21.312 0 0 0-30.165333 0L89.6 210.304a21.312 21.312 0 0 0 0 30.165333l86.741333 86.741334C162.56 355.498667 151.658667 392.938667 143.104 426.666667H21.333333a21.333333 21.333333 0 0 0-21.333333 21.333333v128a21.333333 21.333333 0 0 0 21.333333 21.333333h121.770667c8.554667 33.749333 19.456 71.168 33.237333 99.456L89.6 783.552a21.269333 21.269333 0 0 0 0 30.165333l120.704 120.661334c8.021333 8 22.186667 8 30.165333 0l86.698667-86.741334c28.309333 13.781333 65.749333 24.682667 99.498667 33.237334V1002.666667a21.333333 21.333333 0 0 0 21.333333 21.333333h128a21.333333 21.333333 0 0 0 21.333333-21.333333v-121.792c33.728-8.554667 71.146667-19.434667 99.434667-33.216l86.762667 86.72a21.333333 21.333333 0 0 0 30.165333 0l120.661333-120.661334a21.312 21.312 0 0 0 0-30.165333l-86.698666-86.762667c13.76-28.288 24.661333-65.706667 33.216-99.456H1002.666667a21.333333 21.333333 0 0 0 21.333333-21.333333v-128a21.333333 21.333333 0 0 0-21.333333-21.333333z m-21.333334 128h-117.162666a21.290667 21.290667 0 0 0-20.714667 16.277333c-5.781333 23.808-21.098667 87.04-40.32 118.528-5.12 8.426667-3.818667 19.242667 3.136 26.218667l82.88 82.922666-90.496 90.496-82.944-82.88a21.333333 21.333333 0 0 0-26.218667-3.114666c-31.509333 19.242667-94.72 34.538667-118.506666 40.32a21.333333 21.333333 0 0 0-16.32 20.736V981.333333h-85.333334v-117.162666a21.333333 21.333333 0 0 0-16.298666-20.736c-23.829333-5.76-87.04-21.077333-118.570667-40.341334a21.333333 21.333333 0 0 0-26.218667 3.114667l-82.88 82.922667-90.538666-90.496 82.944-82.901334c6.976-6.976 8.234667-17.813333 3.114666-26.218666-19.264-31.488-34.56-94.72-40.341333-118.528A21.333333 21.333333 0 0 0 159.808 554.666667H42.666667v-85.333334h117.141333a21.248 21.248 0 0 0 20.693333-16.32c5.781333-23.808 21.098667-87.04 40.341334-118.528a21.333333 21.333333 0 0 0-3.114667-26.218666L134.826667 225.344l90.517333-90.496 82.922667 82.88c6.997333 6.976 17.834667 8.256 26.218666 3.136 31.637333-19.328 94.762667-34.517333 118.506667-40.256A21.312 21.312 0 0 0 469.333333 159.872V42.666667h85.333334v117.205333c0 9.856 6.741333 18.432 16.32 20.757333 37.248 8.981333 90.069333 22.912 118.506666 40.256a21.333333 21.333333 0 0 0 26.197334-3.136l82.901333-82.88 90.538667 90.496-82.88 82.88a21.333333 21.333333 0 0 0-3.136 26.197334c19.349333 31.68 34.538667 94.784 40.256 118.549333 2.325333 9.6 10.901333 16.341333 20.757333 16.341333H981.333333v85.333334z" fill="#231F20" /><path d="M512 298.666667c-117.632 0-213.333333 95.701333-213.333333 213.333333s95.701333 213.333333 213.333333 213.333333 213.333333-95.701333 213.333333-213.333333-95.701333-213.333333-213.333333-213.333333z m0 384c-94.101333 0-170.666667-76.565333-170.666667-170.666667s76.565333-170.666667 170.666667-170.666667 170.666667 76.565333 170.666667 170.666667-76.565333 170.666667-170.666667 170.666667z" fill="#231F20" /></svg>